<mxfile host="app.diagrams.net" agent="Mozilla/5.0 (Windows NT 10.0; Win64; x64) AppleWebKit/537.36 (KHTML, like Gecko) Chrome/130.0.0.0 Safari/537.36 Edg/130.0.0.0" version="24.9.1">
  <diagram name="Page-1" id="zTSxuDcFe74mY6qMLPJe">
    <mxGraphModel dx="1426" dy="749" grid="1" gridSize="10" guides="1" tooltips="1" connect="1" arrows="1" fold="1" page="1" pageScale="1" pageWidth="850" pageHeight="1100" math="0" shadow="0">
      <root>
        <mxCell id="0" />
        <mxCell id="1" parent="0" />
        <mxCell id="LDLh7XD-WDaMTyNs96XZ-7" value="" style="whiteSpace=wrap;html=1;aspect=fixed;" vertex="1" parent="1">
          <mxGeometry x="330" y="100" width="420" height="420" as="geometry" />
        </mxCell>
        <mxCell id="LDLh7XD-WDaMTyNs96XZ-1" value="&lt;font style=&quot;font-size: 18px;&quot;&gt;Health4Everyone.AI Robotics Maintenance Tool&lt;/font&gt;" style="text;html=1;align=center;verticalAlign=middle;whiteSpace=wrap;rounded=0;fontStyle=1" vertex="1" parent="1">
          <mxGeometry x="50" y="50" width="250" height="40" as="geometry" />
        </mxCell>
        <mxCell id="LDLh7XD-WDaMTyNs96XZ-4" style="edgeStyle=orthogonalEdgeStyle;rounded=0;orthogonalLoop=1;jettySize=auto;html=1;" edge="1" parent="1" source="LDLh7XD-WDaMTyNs96XZ-2" target="LDLh7XD-WDaMTyNs96XZ-3">
          <mxGeometry relative="1" as="geometry" />
        </mxCell>
        <mxCell id="LDLh7XD-WDaMTyNs96XZ-2" value="&lt;font style=&quot;font-size: 18px;&quot;&gt;Model&lt;/font&gt; &lt;font style=&quot;font-size: 18px;&quot;&gt;Training&lt;/font&gt;" style="rounded=1;whiteSpace=wrap;html=1;fillColor=#f8cecc;strokeColor=#b85450;" vertex="1" parent="1">
          <mxGeometry x="50" y="180" width="170" height="40" as="geometry" />
        </mxCell>
        <mxCell id="LDLh7XD-WDaMTyNs96XZ-6" style="edgeStyle=orthogonalEdgeStyle;rounded=0;orthogonalLoop=1;jettySize=auto;html=1;" edge="1" parent="1" source="LDLh7XD-WDaMTyNs96XZ-3" target="LDLh7XD-WDaMTyNs96XZ-5">
          <mxGeometry relative="1" as="geometry" />
        </mxCell>
        <mxCell id="LDLh7XD-WDaMTyNs96XZ-3" value="Trained XGboost&lt;div&gt;Classifier&lt;/div&gt;" style="sketch=0;outlineConnect=0;fontColor=#232F3E;gradientColor=none;fillColor=#01A88D;strokeColor=none;dashed=0;verticalLabelPosition=bottom;verticalAlign=top;align=center;html=1;fontSize=12;fontStyle=0;aspect=fixed;pointerEvents=1;shape=mxgraph.aws4.sagemaker_model;" vertex="1" parent="1">
          <mxGeometry x="350" y="150" width="100" height="100" as="geometry" />
        </mxCell>
        <mxCell id="LDLh7XD-WDaMTyNs96XZ-5" value="MLflow Experiments" style="rounded=1;whiteSpace=wrap;html=1;fillColor=#dae8fc;strokeColor=#6c8ebf;" vertex="1" parent="1">
          <mxGeometry x="600" y="170" width="120" height="60" as="geometry" />
        </mxCell>
        <mxCell id="LDLh7XD-WDaMTyNs96XZ-8" value="Application Data Store" style="text;html=1;align=center;verticalAlign=middle;whiteSpace=wrap;rounded=0;fontStyle=1" vertex="1" parent="1">
          <mxGeometry x="330" y="70" width="160" height="30" as="geometry" />
        </mxCell>
        <mxCell id="LDLh7XD-WDaMTyNs96XZ-9" value="MLflow Registry" style="rounded=1;whiteSpace=wrap;html=1;fillColor=#dae8fc;strokeColor=#6c8ebf;" vertex="1" parent="1">
          <mxGeometry x="600" y="370" width="120" height="60" as="geometry" />
        </mxCell>
        <mxCell id="LDLh7XD-WDaMTyNs96XZ-10" style="edgeStyle=orthogonalEdgeStyle;rounded=0;orthogonalLoop=1;jettySize=auto;html=1;" edge="1" parent="1" source="LDLh7XD-WDaMTyNs96XZ-5">
          <mxGeometry relative="1" as="geometry">
            <mxPoint x="690" y="370" as="targetPoint" />
          </mxGeometry>
        </mxCell>
        <mxCell id="LDLh7XD-WDaMTyNs96XZ-11" value="Staging or Production" style="edgeLabel;html=1;align=center;verticalAlign=middle;resizable=0;points=[];" vertex="1" connectable="0" parent="LDLh7XD-WDaMTyNs96XZ-10">
          <mxGeometry x="-0.2856" y="1" relative="1" as="geometry">
            <mxPoint as="offset" />
          </mxGeometry>
        </mxCell>
        <mxCell id="LDLh7XD-WDaMTyNs96XZ-13" style="edgeStyle=orthogonalEdgeStyle;rounded=0;orthogonalLoop=1;jettySize=auto;html=1;" edge="1" parent="1" source="LDLh7XD-WDaMTyNs96XZ-12" target="LDLh7XD-WDaMTyNs96XZ-9">
          <mxGeometry relative="1" as="geometry" />
        </mxCell>
        <mxCell id="LDLh7XD-WDaMTyNs96XZ-14" value="Pull Model" style="edgeLabel;html=1;align=center;verticalAlign=middle;resizable=0;points=[];" vertex="1" connectable="0" parent="LDLh7XD-WDaMTyNs96XZ-13">
          <mxGeometry x="-0.1828" y="1" relative="1" as="geometry">
            <mxPoint as="offset" />
          </mxGeometry>
        </mxCell>
        <mxCell id="LDLh7XD-WDaMTyNs96XZ-12" value="Inference Service" style="rounded=1;whiteSpace=wrap;html=1;fillColor=#d5e8d4;strokeColor=#82b366;" vertex="1" parent="1">
          <mxGeometry x="150" y="370" width="120" height="60" as="geometry" />
        </mxCell>
        <mxCell id="LDLh7XD-WDaMTyNs96XZ-18" style="edgeStyle=orthogonalEdgeStyle;rounded=0;orthogonalLoop=1;jettySize=auto;html=1;entryX=0.5;entryY=1;entryDx=0;entryDy=0;" edge="1" parent="1" source="LDLh7XD-WDaMTyNs96XZ-15" target="LDLh7XD-WDaMTyNs96XZ-12">
          <mxGeometry relative="1" as="geometry" />
        </mxCell>
        <mxCell id="LDLh7XD-WDaMTyNs96XZ-19" value="HTTP&lt;div&gt;Request&lt;/div&gt;&lt;div&gt;POST&lt;/div&gt;" style="edgeLabel;html=1;align=center;verticalAlign=middle;resizable=0;points=[];" vertex="1" connectable="0" parent="LDLh7XD-WDaMTyNs96XZ-18">
          <mxGeometry x="0.0642" relative="1" as="geometry">
            <mxPoint as="offset" />
          </mxGeometry>
        </mxCell>
        <mxCell id="LDLh7XD-WDaMTyNs96XZ-15" value="Frontend" style="verticalLabelPosition=bottom;html=1;verticalAlign=top;align=center;strokeColor=none;fillColor=#00BEF2;shape=mxgraph.azure.computer;pointerEvents=1;" vertex="1" parent="1">
          <mxGeometry x="185" y="550" width="50" height="23" as="geometry" />
        </mxCell>
        <mxCell id="LDLh7XD-WDaMTyNs96XZ-16" style="edgeStyle=orthogonalEdgeStyle;rounded=0;orthogonalLoop=1;jettySize=auto;html=1;entryX=0.088;entryY=0.925;entryDx=0;entryDy=0;entryPerimeter=0;" edge="1" parent="1" source="LDLh7XD-WDaMTyNs96XZ-15" target="LDLh7XD-WDaMTyNs96XZ-2">
          <mxGeometry relative="1" as="geometry">
            <Array as="points">
              <mxPoint x="65" y="551" />
            </Array>
          </mxGeometry>
        </mxCell>
        <mxCell id="LDLh7XD-WDaMTyNs96XZ-17" value="HTTP&lt;div&gt;&amp;nbsp;Request&amp;nbsp;&lt;/div&gt;&lt;div&gt;POST&lt;/div&gt;" style="edgeLabel;html=1;align=center;verticalAlign=middle;resizable=0;points=[];" vertex="1" connectable="0" parent="LDLh7XD-WDaMTyNs96XZ-16">
          <mxGeometry x="0.2233" y="1" relative="1" as="geometry">
            <mxPoint as="offset" />
          </mxGeometry>
        </mxCell>
        <mxCell id="LDLh7XD-WDaMTyNs96XZ-22" style="edgeStyle=orthogonalEdgeStyle;rounded=0;orthogonalLoop=1;jettySize=auto;html=1;" edge="1" parent="1" source="LDLh7XD-WDaMTyNs96XZ-20">
          <mxGeometry relative="1" as="geometry">
            <mxPoint x="210" y="590" as="targetPoint" />
          </mxGeometry>
        </mxCell>
        <mxCell id="LDLh7XD-WDaMTyNs96XZ-20" value="Health4Everyone&lt;div&gt;AI Dev Team&lt;/div&gt;" style="shape=umlActor;verticalLabelPosition=bottom;verticalAlign=top;html=1;outlineConnect=0;" vertex="1" parent="1">
          <mxGeometry x="80" y="640" width="30" height="60" as="geometry" />
        </mxCell>
        <mxCell id="LDLh7XD-WDaMTyNs96XZ-26" style="edgeStyle=orthogonalEdgeStyle;rounded=0;orthogonalLoop=1;jettySize=auto;html=1;" edge="1" parent="1" source="LDLh7XD-WDaMTyNs96XZ-25">
          <mxGeometry relative="1" as="geometry">
            <mxPoint x="221" y="590" as="targetPoint" />
            <Array as="points">
              <mxPoint x="221" y="670" />
            </Array>
          </mxGeometry>
        </mxCell>
        <mxCell id="LDLh7XD-WDaMTyNs96XZ-25" value="Health4Everyone&lt;div&gt;Maintenance Team&lt;/div&gt;" style="shape=umlActor;verticalLabelPosition=bottom;verticalAlign=top;html=1;outlineConnect=0;" vertex="1" parent="1">
          <mxGeometry x="395" y="640" width="30" height="60" as="geometry" />
        </mxCell>
        <mxCell id="LDLh7XD-WDaMTyNs96XZ-32" style="edgeStyle=orthogonalEdgeStyle;rounded=0;orthogonalLoop=1;jettySize=auto;html=1;entryX=0.5;entryY=0;entryDx=0;entryDy=0;" edge="1" parent="1" source="LDLh7XD-WDaMTyNs96XZ-27" target="LDLh7XD-WDaMTyNs96XZ-30">
          <mxGeometry relative="1" as="geometry" />
        </mxCell>
        <mxCell id="LDLh7XD-WDaMTyNs96XZ-27" value="Inference Log" style="shape=note;whiteSpace=wrap;html=1;backgroundOutline=1;darkOpacity=0.05;" vertex="1" parent="1">
          <mxGeometry x="370" y="440" width="120" height="60" as="geometry" />
        </mxCell>
        <mxCell id="LDLh7XD-WDaMTyNs96XZ-28" style="edgeStyle=orthogonalEdgeStyle;rounded=0;orthogonalLoop=1;jettySize=auto;html=1;entryX=0.008;entryY=0.75;entryDx=0;entryDy=0;entryPerimeter=0;" edge="1" parent="1" source="LDLh7XD-WDaMTyNs96XZ-12" target="LDLh7XD-WDaMTyNs96XZ-27">
          <mxGeometry relative="1" as="geometry">
            <Array as="points">
              <mxPoint x="310" y="420" />
              <mxPoint x="310" y="485" />
            </Array>
          </mxGeometry>
        </mxCell>
        <mxCell id="LDLh7XD-WDaMTyNs96XZ-30" value="Production Monitoring Service" style="rounded=1;whiteSpace=wrap;html=1;fillColor=#e1d5e7;strokeColor=#9673a6;" vertex="1" parent="1">
          <mxGeometry x="370" y="550" width="120" height="60" as="geometry" />
        </mxCell>
        <mxCell id="LDLh7XD-WDaMTyNs96XZ-34" style="edgeStyle=orthogonalEdgeStyle;rounded=0;orthogonalLoop=1;jettySize=auto;html=1;entryX=1;entryY=0.5;entryDx=0;entryDy=0;entryPerimeter=0;" edge="1" parent="1" source="LDLh7XD-WDaMTyNs96XZ-30" target="LDLh7XD-WDaMTyNs96XZ-15">
          <mxGeometry relative="1" as="geometry" />
        </mxCell>
      </root>
    </mxGraphModel>
  </diagram>
</mxfile>
